# xmcd
# 
# Track frame offsets:
#     150
#     25929
#     60847
#     93928
#     149723
#     217175
#     243055
#     273096
# 
# Disc length: 3994
# 
# Revision: 5
# Processed by: cddbd v1.5.2PL0 Copyright (c) Steve Scherf et al.
# Submitted via: fre:ac v1.0.31
# 
DISCID=6a0f9808
DTITLE=Nurse With Wound - Second Pirate Session, Rock'N Roll Station - Disc 1
DYEAR=1998
DGENRE=
TTITLE0=Sugarbush Vs. The Swinging Snares
TTITLE1=Optical Illusion Pad
TTITLE2=Organophosphorous Resistance In Studio Conditions
TTITLE3=A. Subterreanean Zappa Blues B. My Saxy Baby
TTITLE4=A. Chuggin B. Codfish C. Phantom Limb Amputation Scene
TTITLE5=Russolo, a little fella on very ordinary legs (on the verge of getting it on)
TTITLE6=Ernest needs a kidney (live studio jam)
TTITLE7=Rock N Roll Station (atmospheric karaoke version)
EXTD=Rock N Roll Station Special Edition\t
EXTT0=
EXTT1=
EXTT2=
EXTT3=
EXTT4=
EXTT5=
EXTT6=
EXTT7=
PLAYORDER=
